<?xml version="1.0" encoding="utf-8"?>
<!-- Generator: Adobe Illustrator 25.2.1, SVG Export Plug-In . SVG Version: 6.00 Build 0)  -->
<svg version="1.1" id="Layer_1" xmlns="http://www.w3.org/2000/svg" xmlns:xlink="http://www.w3.org/1999/xlink" x="0px" y="0px"
	 viewBox="0 0 79.8 80" style="enable-background:new 0 0 79.8 80;" xml:space="preserve">
<style type="text/css">
	.st0{fill:#00AEEF;}
	.st1{fill-rule:evenodd;clip-rule:evenodd;fill:#00AEEF;}
</style>
<g>
	<path class="st0" d="M40,80c-0.4,0-0.8-0.1-1.1-0.3c-0.3-0.2-0.6-0.5-0.8-0.8l-5.8-10l-10.1,5.8c-0.5,0.3-1.1,0.4-1.7,0.2
		c-0.6-0.2-1-0.5-1.3-1c-0.1-0.2-0.2-0.5-0.3-0.8l0,0v-0.3V61.1H7.3c-1.2,0-2.2-1-2.2-2.2c0-0.5,0.1-0.9,0.4-1.3l5.7-9.9L1.1,41.9
		c-1-0.6-1.4-2-0.8-3c0.2-0.3,0.5-0.6,0.8-0.8l10-5.8L5.3,22.2c-0.3-0.5-0.4-1.1-0.2-1.7c0.2-0.6,0.5-1,1-1.3
		c0.2-0.1,0.5-0.2,0.8-0.3l0,0h0.3h11.6V7.2C18.8,6,19.8,5,21,5c0.4,0,0.9,0.1,1.2,0.4l9.9,5.8l5.8-10.1c0.6-1,2-1.4,3-0.8
		c0.3,0.2,0.6,0.5,0.8,0.8l5.8,10l10.1-5.8c0.5-0.3,1.1-0.4,1.7-0.2c0.6,0.2,1,0.5,1.3,1c0.2,0.3,0.3,0.7,0.3,1.1v11.7h11.7
		c1.2,0,2.2,1,2.2,2.2c0,0.4-0.1,0.9-0.4,1.2l-5.8,9.9L78.7,38c1,0.6,1.4,2,0.8,3c-0.2,0.3-0.5,0.6-0.8,0.8l-10,5.8l5.8,10.1
		c0.3,0.5,0.4,1.1,0.2,1.7c-0.2,0.6-0.5,1-1,1.3C73.4,60.9,73,61,72.6,61H60.9v11.6c0,1.2-1,2.2-2.2,2.2c-0.5,0-0.9-0.1-1.3-0.4
		l-9.9-5.7l-5.8,10.1C41.5,79.6,40.8,80,40,80z M32.5,68l6.2,10.6c0.1,0.2,0.3,0.4,0.6,0.6c0.7,0.4,1.7,0.2,2.1-0.6L47.6,68l10.5,6
		c0.3,0.2,0.6,0.3,0.9,0.3c0.9,0,1.6-0.7,1.6-1.6V60.5h12.3c0.3,0,0.5-0.1,0.8-0.2c0.4-0.2,0.6-0.5,0.7-0.9s0.1-0.8-0.2-1.2L68,47.6
		l10.6-6.2c0.2-0.1,0.4-0.3,0.6-0.6c0.4-0.7,0.2-1.7-0.6-2.1L68,32.5L74.1,22c0.2-0.3,0.3-0.6,0.3-0.9c0-0.9-0.7-1.6-1.6-1.6H60.5
		V7.2c0-0.3-0.1-0.5-0.2-0.8c-0.2-0.4-0.5-0.6-0.9-0.7s-0.8-0.1-1.2,0.2l-10.6,6.2L41.4,1.5c-0.1-0.2-0.3-0.4-0.6-0.6
		c-0.7-0.4-1.7-0.2-2.1,0.6l-6.2,10.6L22,6c-0.3-0.2-0.6-0.3-0.9-0.3c-0.9,0-1.6,0.7-1.6,1.6v12.3H7.2c-0.3,0-0.5,0.1-0.8,0.2
		C6,20,5.8,20.3,5.7,20.7s-0.1,0.8,0.2,1.2L12,32.5L1.4,38.7C1.2,38.8,1,39,0.8,39.3C0.4,40,0.6,41,1.4,41.4L12,47.6L6,58.1
		c-0.2,0.3-0.3,0.6-0.3,0.9c0,0.9,0.7,1.6,1.6,1.6h12.3v12.3c0,0.3,0.1,0.5,0.2,0.8c0.2,0.4,0.5,0.6,0.9,0.7s0.8,0.1,1.2-0.2
		L32.5,68z"/>
	<polygon class="st1" points="46.1,27.5 52.4,27.5 34,52.5 27.8,52.5 	"/>
	<path class="st1" d="M29.2,26.5c2.3,0,4.2,0.7,5.6,2c1.4,1.3,2.1,3.1,2.1,5.3s-0.7,4-2.1,5.3c-1.4,1.3-3.3,2-5.6,2s-4.2-0.7-5.6-2
		c-1.4-1.3-2.1-3.1-2.1-5.3s0.7-4,2.1-5.3C25,27.1,26.9,26.5,29.2,26.5L29.2,26.5z M29.2,32.1c-0.5,0-0.9,0.1-1.1,0.4
		c-0.3,0.3-0.4,0.7-0.4,1.2s0.1,0.9,0.4,1.2c0.3,0.3,0.6,0.4,1.1,0.4s0.9-0.1,1.2-0.4c0.3-0.3,0.4-0.7,0.4-1.2s-0.1-0.9-0.4-1.2
		C30.1,32.2,29.7,32.1,29.2,32.1L29.2,32.1z"/>
	<path class="st1" d="M50.9,39.1c2.3,0,4.2,0.7,5.6,2s2.1,3.1,2.1,5.3c0,2.2-0.7,4-2.1,5.3s-3.3,2-5.6,2c-2.3,0-4.2-0.7-5.6-2
		s-2.1-3.1-2.1-5.3c0-2.2,0.7-4,2.1-5.3C46.7,39.7,48.5,39.1,50.9,39.1L50.9,39.1z M50.9,44.7c-0.5,0-0.9,0.1-1.2,0.4
		c-0.3,0.3-0.4,0.7-0.4,1.2s0.1,0.9,0.4,1.2c0.3,0.3,0.7,0.4,1.2,0.4s0.9-0.1,1.1-0.4c0.3-0.3,0.4-0.7,0.4-1.2s-0.1-0.9-0.4-1.2
		C51.8,44.8,51.4,44.7,50.9,44.7L50.9,44.7z"/>
</g>
</svg>
