<?xml version="1.0" encoding="utf-8"?>
<!-- Generator: Adobe Illustrator 25.2.1, SVG Export Plug-In . SVG Version: 6.00 Build 0)  -->
<svg version="1.1" id="Layer_1" xmlns="http://www.w3.org/2000/svg" xmlns:xlink="http://www.w3.org/1999/xlink" x="0px" y="0px"
	 viewBox="0 0 240 60" style="enable-background:new 0 0 240 60;" xml:space="preserve">
<style type="text/css">
	.st0{fill:#FFFFFF;}
</style>
<g>
	<g>
		<path class="st0" d="M30,59c-0.2,0-0.5-0.1-0.7-0.2c-0.7-0.8-0.5-2.2,0.8-4.8c1.1-2.3,2.5-4.9,4.2-7.8c1.7-2.9,3.3-5.5,4.8-7.9
			c1.2-2,2.1-3.3,2.6-4.1c-0.7,0.2-1.8,0.6-3.3,1.1c-1.8,0.6-3.8,1.2-6.1,1.9s-4.8,1.3-7.2,1.9c-2.5,0.6-4.8,1-6.9,1.3
			c-1.2,0.2-2.3,0.2-3.3,0.2c-0.8,0-1.4,0-2-0.2c-2-0.3-2.4-1.5-2.4-2.3c0-1.7,0.7-3.7,2.2-5.9c1.4-2.2,3.1-4.4,5.2-6.6
			c2-2.2,4-4.2,6-6c1.9-1.8,3.5-3.2,4.8-4.2c1.1-1,2.9-2.4,5.4-4.4c2.5-1.9,5.2-3.8,8.2-5.7c3-1.9,5.8-3.2,8.4-4
			c1-0.3,1.9-0.5,2.8-0.5c1.4,0,2.6,0.5,3.5,1.3c1.1,1.4,1.4,3.4,0.9,5.9c-0.5,2.4-1.3,5-2.6,7.8c-1.2,2.8-2.5,5.4-3.8,7.7
			c-1.3,2.4-2.3,4.1-3.1,5.3c0,0,0,0,0,0.1c7.1-2.3,14.3-4.4,21.5-6.4c0.6-0.1,1-0.3,1.2-0.4c0.2-0.1,0.4-0.2,0.5-0.3
			c0.2-0.2,0.3-0.4,0.5-0.8c0.1-0.2,0.3-0.5,0.5-0.8l4.9-7.7c1.2-1.9,2.4-3.8,3.6-5.6l0.2-0.2l0.1-0.1l0-0.1l-0.1-0.2
			c0-0.6,0.2-1,0.7-1.5c0.4-0.4,0.9-0.6,1.4-0.8c0.2-0.1,0.4-0.1,0.7-0.1c0.3,0,0.6,0.1,0.8,0.2c0.3,0.3,0.6,0.8,0.4,1.4
			c-0.1,0.4-0.3,0.8-0.5,1.2c-0.2,0.4-0.4,0.6-0.6,0.8c-0.5,0.8-1.1,1.7-1.6,2.5c-2.4,3.7-4.9,7.4-7.3,11.2c0.8-0.2,1.7-0.4,2.7-0.6
			c0.5-0.1,1-0.1,1.4-0.1c0.7,0,1.4,0.1,2,0.3c0.3,0.1,0.5,0.3,0.7,0.5c0.3,0.3,0.4,0.7,0.4,1.1c-0.1,0.6-0.4,0.8-0.6,0.8l-0.1,0
			l-0.2,0c-0.2,0-0.3,0-0.4-0.1c-0.2-0.1-0.3-0.1-0.5-0.3c-0.1,0-0.2-0.1-0.7-0.1c-0.2,0-0.3,0-0.5,0c-0.7,0.1-1.4,0.2-2.2,0.4
			c-0.8,0.2-1.4,0.3-1.9,0.5c-0.2,0-0.3,0.1-0.4,0.1l-0.6,0.2c-0.4,0.1-0.6,0.2-0.8,0.2c-0.1,0-0.2,0.1-0.3,0.3
			c-0.2,0.2-0.3,0.5-0.6,0.9C68.1,32,64.2,38.9,60.7,46c-0.1,0.1-0.2,0.4-0.2,0.4c0,0.1,0.1,0.2,0.1,0.3c0.1,0.6-0.1,1.1-0.5,1.4
			c-0.3,0.3-0.7,0.4-1,0.4c-0.5,0-1-0.2-1.2-1c-0.3-1-0.2-2,0.3-2.9c3.4-6.5,7.1-13,11.1-19.2c-5.6,1.6-11,3.4-16.3,5.1l-4.8,1.6
			c-0.4,0.1-0.7,0.2-0.9,0.3c-0.4,0.1-0.8,0.3-1,0.4c-0.2,0.1-0.3,0.2-0.4,0.3c-0.1,0.2-0.3,0.5-0.5,0.8c-0.1,0.2-0.3,0.5-0.5,0.8
			l-2.7,4.3c-1.4,2.2-2.8,4.6-4.5,7.3c-1.6,2.7-3,5-4.2,7c-1.3,2.2-1.6,3-1.7,3.3c0.2,0.6,0,1.1-0.1,1.3c-0.3,0.4-0.6,0.6-1,0.8
			C30.4,58.9,30.2,59,30,59z M52.8,4c-0.3,0-0.7,0-1.2,0.1c-2.3,0.5-5.3,2-8.9,4.3c-3.6,2.4-7.3,5.2-11.2,8.4
			c-3.8,3.2-7.4,6.5-10.5,9.7c-3.1,3.2-5.4,6-6.8,8.2c-1.2,1.8-1.1,2.6-1.1,2.9c0,0.1,0.1,0.2,0.4,0.3c0.3,0,0.8,0.1,1.3,0.1
			c1.6,0,3.9-0.3,6.8-1c3.8-0.9,7.7-1.9,11.5-3.1c3.8-1.2,6.8-2.1,8.7-2.8c0.4-0.1,0.7-0.2,1-0.3c0.5-0.1,0.8-0.3,1-0.4
			c0.1-0.1,0.2-0.1,0.3-0.3c0.1-0.2,0.3-0.5,0.5-0.8c0.2-0.2,0.3-0.6,0.6-1c2-3.3,4-6.8,5.7-10.3c2.8-5.8,4.1-9.8,3.9-11.9
			C54.8,4.7,54.2,4,52.8,4z"/>
		<path class="st0" d="M94,59c-0.3,0-0.6,0-0.9,0c-1.3-0.1-2.2-0.4-2.7-1c-0.6-1.2-0.1-1.7,0.2-1.9c0.2-0.2,0.5-0.2,0.8-0.2
			c0.3,0,0.7,0.1,1.1,0.4c0.3,0.1,0.9,0.2,1.6,0.2c0.7,0,1.4-0.1,2.3-0.2c1.8-0.3,3.4-0.6,4.8-0.9c0.2,0,0.4-0.1,0.5-0.1
			c8.6-1.8,17.2-5.2,25.4-10s15.3-10.5,21-17c4.9-5.8,7.6-10.6,8.1-14.1c0.4-3.4-0.6-5.9-3.2-7.4c-2.7-1.6-6.3-2.4-10.9-2.5h-0.6
			c-4.4,0-9.1,0.6-14.1,1.7c-5.2,1.2-10,2.8-14.4,4.9c-0.9,0.4-2.2,1.2-4,2.3s-3.5,2.4-5,3.8c-1.5,1.4-2.4,2.7-2.6,4
			c-0.1,0.4-0.3,1.7,2.6,2.9c0.5,0.3,0.7,0.6,0.8,0.9c0.1,0.4,0,0.8-0.3,1c-0.1,0.1-0.4,0.3-0.7,0.3c-0.2,0-0.3,0-0.6-0.1
			c-3.2-1.1-4.8-2.6-4.8-4.5c0-1.7,0.9-3.5,2.6-5.4c1.7-1.8,3.6-3.3,5.7-4.7c2.1-1.4,3.9-2.4,5.2-3c5-2.4,10.4-4.1,16.1-5.3
			c4.5-0.9,8.8-1.4,12.9-1.4c1,0,2,0,2.9,0.1c4.9,0.3,8.9,1.5,11.7,3.5c2.9,2.1,4.1,5.3,3.6,9.5c-0.6,4.1-3.5,9.3-8.8,15.5
			c-6.2,7.1-13.9,13.3-23,18.4c-9,5.1-18.3,8.5-27.7,10.1c-0.6,0.1-1.5,0.2-2.7,0.4C95.8,58.9,94.9,59,94,59z"/>
		<path class="st0" d="M105.4,51.4c-0.3,0-0.7-0.2-0.9-0.5c-0.2-0.4-0.3-0.8-0.1-1.3c1.2-3.2,1.1-4.9,8.7-19.3
			c2.7-5.1,5.9-9.1,8.3-12.7c0.5-0.7,0.9-1.3,1.2-1.8c0.4-0.6,0.5-0.8,0.5-0.9c0-0.1-0.1-0.2-0.2-0.2c-0.1,0-0.3-0.1-0.4-0.2
			c-0.2-0.2-0.3-0.5-0.2-0.9c0.1-0.2,0.2-0.4,0.4-0.7c0.3-0.4,0.9-0.9,1.7-1.7c0.8-0.8,1.6-1.4,2.4-2c0.7-0.5,1.2-0.7,1.7-0.7
			c0.2,0,0.4,0.1,0.6,0.1c0.3,0.2,0.7,0.6,0.5,1.4c-0.1,0.4-0.3,0.9-0.6,1.3c-0.3,0.4-0.5,0.8-0.7,1.1c-0.1,0.2-0.3,0.4-0.4,0.5
			c-1.2,1.9-2.3,3.2-5.5,7.5c-2.4,3.2-5.7,8.2-8,12.7c-5.7,11.1-6.9,14.8-7.8,17.2c-0.2,0.6-0.5,0.9-0.9,1l-0.1,0L105.4,51.4z"/>
		<path class="st0" d="M181.7,43.8c-0.1,0-0.3,0-0.4-0.1c-0.6-0.3-1.4-1.1-0.5-2.8c1.3-2.7,2.9-5.3,4.6-7.6c0.8-1.2,1.6-2.3,2.4-3.5
			c-0.2-0.2-0.2-0.5-0.1-0.8c0.1-0.3,0.2-0.5,0.4-0.8c0.1-0.1,0.4-0.3,0.7-0.5c0.4-0.2,0.7-0.4,1.1-0.5c0.1,0,0.2,0,0.4,0
			c0.4,0,0.7,0.2,0.9,0.5c0.2,0.4,0.2,0.9-0.1,1.8c-1.4,2.5-3,5-4.7,7.5c0,0-0.1,0.1-0.1,0.2c1.2-1,2.4-2.1,3.7-3.2
			c1.6-1.3,3.1-2.5,4.5-3.3c1.2-0.8,2.2-1.1,2.9-1.1c0.2,0,0.4,0,0.5,0.1c0.9,0.4,1.7,1.4,0.9,3.8l-0.2,0.6
			c-0.2,0.6-0.4,1.3-0.8,2.2c-0.3,0.9-0.6,1.7-0.8,2.4c0,0,0,0.1,0,0.1c0,0,0.1,0,0.1-0.1c0.5-0.5,1-1,1.6-1.7
			c1.1-1.1,2.2-2.2,3.3-3.3c1.2-1.1,2.3-1.7,3.2-1.7c1.1,0.2,1.6,0.8,1.8,1.7c0.1,0.8,0.1,1.6,0,2.5c-0.1,0.5-0.1,1-0.1,1.4
			c0,0.3,0.1,0.5,0.2,0.6c0.3,0,1.2-0.3,3.6-1.7c0.3-0.2,0.6-0.3,0.9-0.3h0.1l0.2,0.1c0.4,0.2,0.6,0.5,0.6,1c-0.1,0.5-0.5,0.8-0.9,1
			c-1.7,1-2.9,1.7-3.9,2c-0.4,0.1-0.8,0.2-1.1,0.2c-0.6,0-1.1-0.2-1.5-0.5c-0.9-0.9-1.3-2.3-1.1-4.4c0,0-0.1,0.1-0.1,0.1l-0.2,0.1
			c-0.6,0.5-1.3,1.2-2.1,2c-1,1-2.1,1.9-3,2.7c-0.9,0.7-1.6,1-2.3,1c-0.2,0-0.3,0-0.5-0.1c-1-0.4-1.5-1.2-1.6-2.4c0-1,0.2-2,0.5-3.2
			c0.4-1.1,0.8-2.1,1.1-3l0.2-0.5c-0.6,0.4-1.4,1-2.4,1.8c-1.1,0.9-2.2,1.8-3.3,2.8l-2.6,2.4c-0.3,0.3-0.6,0.5-0.6,0.6l-0.6,0.5
			c-0.4,0.4-0.9,0.8-1.6,1.4c-0.6,0.5-1.3,1-1.9,1.4C182.6,43.7,182.1,43.8,181.7,43.8z"/>
		<path class="st0" d="M209.9,41.8c-0.8,0-1.2-0.3-1.3-0.6c-0.5-0.9,0-2.2,1.4-3.9c1.2-1.5,2.9-3,4.9-4.3c2-1.4,3.9-2.2,5.8-2.5
			c0.3,0,0.5-0.1,0.8-0.1c1.6,0,2.8,0.9,3.5,2.5c0.1,0.4,0.1,0.8-0.2,1.1c-0.2,0.3-0.5,0.5-0.8,0.5c-0.1,0-0.2,0-0.4,0
			c-0.3,0-0.5-0.1-0.8-0.2l0,0c0,0.2-0.1,0.3-0.1,0.5c-0.8,1.7-0.8,2.5-0.5,2.7c0.3,0.2,0.6,0.3,1,0.3l0,0c0.4,0,0.8-0.1,1.4-0.2
			c1.2-0.3,2.2-0.8,3-1.2c0.4-0.2,0.7-0.3,1-0.3c0.4,0,0.7,0.2,0.8,0.5c0.2,0.5-0.1,1.1-0.8,1.6c-0.9,0.5-2,1-3.3,1.5
			c-1,0.4-1.9,0.5-2.8,0.5c-0.4,0-0.7,0-1-0.1c-0.9-0.2-1.9-0.8-2-2.8c-3.4,2.2-5.8,3.5-7.4,4.1C211.2,41.7,210.5,41.8,209.9,41.8z
			 M221.4,32.7c-0.4,0-0.8,0.1-1.3,0.3c-1.3,0.5-2.7,1.3-4.1,2.4c-1.5,1.1-2.7,2.2-3.7,3.1c-0.2,0.2-0.3,0.3-0.4,0.4
			c0.3-0.1,0.6-0.3,1-0.5c1.6-0.9,4.3-2.7,8.1-5.3c0.3-0.2,0.5-0.2,0.8-0.2l0.2,0c0.1,0,0.2,0,0.3,0.1l0,0l0.1,0
			C222,32.9,221.7,32.7,221.4,32.7z"/>
		<circle class="st0" cx="76.8" cy="54.2" r="2.8"/>
		<path class="st0" d="M184.6,36.6c-0.3,0-0.6,0.2-1,0.5c-1,0.7-2.1,1.5-3.5,2.2c-1.3,0.8-2.5,1.3-3.6,1.6c-0.3,0.1-0.6,0.1-0.9,0.1
			c-0.5,0-0.6-0.2-0.6-0.2c-0.2-0.8,0-1.8,0.5-2.9c0.6-1.2,1.2-2.2,1.8-3.1c1.4-1.8,1.7-3.4,0.9-4.6c-0.7-1.1-2-2.1-3.8-2.9
			c-0.1,0-0.1-0.1-0.2-0.1c0,0,0.1-0.1,0.1-0.3c0.3-0.9,0.5-1.6,0.3-2.3c-0.1-0.7-0.4-1.3-0.9-1.8c-0.7-0.5-1.3-0.8-1.9-0.8
			c-0.4,0-0.8,0.1-1.1,0.3c-0.9,0.5-1.2,1.5-1.2,2.8c0.1,0.8,0.5,1.6,1.2,2.5c0.2,0.2,0.3,0.4,0.4,0.6c0,0.1-0.1,0.2-0.1,0.3
			c-0.3,0.3-0.6,0.7-0.8,1l0,0c0,0-2,2.3-4.1,4.4c0,0-0.1,0-0.1,0.1s0,0-0.1,0.1c-0.3,0.3-0.7,0.7-1,1c-0.3,0.3-0.8,0.7-1.3,1.2
			c-1.3,1.1-2.7,2.3-4.3,3.4c-1.5,1.1-2.9,1.9-4.1,2.4c-0.1,0-0.2,0.1-0.4,0.1c-0.9,0.2-1-0.1-1.1-0.3c-0.1-0.5,0-1.2,0.3-2.1
			c0.2-0.7,0.4-1.2,0.6-1.7c0.3,0.1,0.7,0,1.1-0.1c0.5-0.1,1.1-0.4,1.7-0.9c1.2-0.8,2.2-2,3.1-3.3c1-1.4,1.5-2.6,1.5-3.7
			c0-0.7-0.3-1.1-0.5-1.4c-0.5-0.5-1.3-0.8-2.5-0.6c-1.5,0.4-2.9,1.5-4.3,3.3c-1.4,1.8-2.4,3.7-3.3,5.7c-0.9,2.1-1.2,3.8-0.9,5.2
			c0.6,2.7,2.2,3.1,3.5,3c0.4,0,0.8-0.1,1.2-0.2c1.2-0.3,2.5-1,3.9-1.9c1.8-1.2,3.5-2.6,5-4c1.1-1.1,2-2,2.7-2.7l0,0c0,0,0,0,0,0
			c0.2-0.2,0.4-0.4,0.5-0.6c0,0,0.1-0.1,0.1-0.1c1.5-1.7,3.5-3.9,4.3-4.8c0.1-0.1,0.2-0.2,0.3-0.4c0.1-0.2,0.3-0.4,0.6-0.8
			c0.2-0.3,0.3-0.4,0.3-0.4c0,0,0.1,0,0.1,0l0.1,0.1l0.1,0c1,0.6,1.8,1.1,2.2,1.7c0.1,0.2,0.5,0.7-0.3,1.9c-2.8,3.7-3.9,6.3-3.4,8
			c0.3,0.9,1.1,2.1,3.1,2.1c0.5,0,1.1-0.1,1.7-0.2c2.4-0.5,5.1-2.2,8.1-4.8c0.3-0.3,0.4-0.6,0.4-1C185.4,36.9,185.1,36.6,184.6,36.6
			z M157.1,32.2c0.8-1,1.8-1.6,2.1-1.3c0.4,0.3,0.1,1.4-0.7,2.4c-0.8,1-1.8,1.6-2.1,1.3C156,34.3,156.4,33.2,157.1,32.2z"/>
	</g>
</g>
</svg>
