<svg width="30" height="38" viewBox="0 0 30 38" fill="none" xmlns="http://www.w3.org/2000/svg">
<path d="M26.6667 0.666504H3.33333C1.5 0.666504 0.0166667 2.1665 0.0166667 3.99984L0 25.5498C0 26.6998 0.583334 27.7165 1.46667 28.3165L15 37.3332L28.5167 28.3165C29.4 27.7165 29.9833 26.6998 29.9833 25.5498L30 3.99984C30 2.1665 28.5 0.666504 26.6667 0.666504ZM15 33.3332L3.33333 25.5665V3.99984H26.6667V25.5498L15 33.3332ZM11.65 20.9665L7.35 16.6498L5 18.9998L11.6667 25.6665L25 12.3332L22.6333 9.9665L11.65 20.9665Z" fill="white"/>
</svg>
