<?xml version="1.0" encoding="utf-8"?>
<!-- Generator: Adobe Illustrator 25.2.1, SVG Export Plug-In . SVG Version: 6.00 Build 0)  -->
<svg version="1.1" id="Layer_1" xmlns="http://www.w3.org/2000/svg" xmlns:xlink="http://www.w3.org/1999/xlink" x="0px" y="0px"
	 viewBox="0 0 173.2 112.7" style="enable-background:new 0 0 173.2 112.7;" xml:space="preserve">
<style type="text/css">
	.st0{fill-rule:evenodd;clip-rule:evenodd;fill:#00AEEF;}
</style>
<path class="st0" d="M41.4,37h4.5l0.3,0.1c0.9,0.5,1.7,1.1,2.5,1.8c0.6,0.5,1.1,1,1.6,1.6c2-3.1,4.2-6.1,6.5-9
	c2.6-3.2,5.4-6.2,8.3-9.1l0.4-0.2h4.9l-1,1.1c-3.6,4.2-7.1,8.5-10.3,13c-2.9,4.2-5.6,8.5-8.1,13l-0.6,1.2l-0.6-1.2
	c-1-2.2-2.3-4.2-3.8-6.1c-1.5-1.9-3.2-3.5-5.2-4.8C41,38.2,41.4,37.1,41.4,37z"/>
<path class="st0" d="M115.6,41.3l-8.5-0.1V29.8c0-3.4-2.8-6.2-6.2-6.2H75.8c0.8,1.1,1.4,2.2,2,3.3h23.1c0.8,0,1.5,0.3,2,0.8
	s0.8,1.3,0.8,2v52.6h-9.5c-0.9-0.1-1.8,0.6-1.8,1.6c-0.1,0.9,0.6,1.8,1.6,1.8c0.1,0,0.2,0,0.3,0h11.1c0.9,0,1.7-0.8,1.7-1.7v-1.9
	h6.8c0.8-17.4,25.9-19.9,28.5,0h5.5c1.4-17-7-23.6-19.8-25.1c-1.1-3.9-2.6-7.8-4.6-11.4C121,41.2,120.5,41.4,115.6,41.3L115.6,41.3z
	 M60.1,56.3c0.4,0.7,0.2,1.7-0.6,2.2s-1.8,0.2-2.2-0.5c0,0,0,0,0-0.1l-0.8-1.5c-0.5-0.8-0.2-1.8,0.5-2.2c0.8-0.5,1.8-0.2,2.2,0.5
	c0,0,0,0,0,0.1C59.2,54.7,60.1,56.3,60.1,56.3z M39.5,27.1c-0.5-0.8-0.2-1.8,0.5-2.2c0.8-0.5,1.8-0.2,2.2,0.5c0,0,0,0,0,0.1l0.9,1.5
	c0.5,0.8,0.2,1.8-0.5,2.2c-0.8,0.5-1.8,0.2-2.2-0.5c0,0,0,0,0-0.1L39.5,27.1z M65.9,49.2c0.8,0.4,1.1,1.5,0.6,2.2
	c-0.4,0.8-1.5,1.1-2.2,0.6l-1.5-0.9c-0.8-0.4-1.1-1.4-0.7-2.2c0.4-0.8,1.4-1.1,2.2-0.7c0,0,0,0,0.1,0L65.9,49.2L65.9,49.2z
	 M33.6,34.1c-0.8-0.4-1-1.4-0.6-2.2c0.4-0.8,1.4-1,2.2-0.6l1.5,0.9c0.8,0.5,1,1.4,0.6,2.2c-0.5,0.8-1.4,1-2.2,0.6l0,0L33.6,34.1
	L33.6,34.1z M67.5,40.1c0.9-0.1,1.7,0.6,1.8,1.5c0.1,0.9-0.6,1.7-1.5,1.8c-0.1,0-0.2,0-0.3,0h-1.8c-0.9-0.1-1.6-0.9-1.5-1.8
	c0.1-0.8,0.7-1.4,1.5-1.5H67.5z M32,43.3c-0.9,0.1-1.7-0.6-1.8-1.5c-0.1-0.9,0.6-1.7,1.5-1.8c0.1,0,0.2,0,0.3,0h1.8
	c0.9-0.1,1.7,0.6,1.8,1.5c-0.1,0.9-0.7,1.7-1.6,1.8c-0.1,0-0.2,0-0.3,0H32z M35.2,52c-0.8,0.5-1.8,0.2-2.2-0.5
	c-0.5-0.8-0.2-1.8,0.5-2.2c0,0,0,0,0.1,0l1.5-0.9c0.8-0.5,1.8-0.2,2.2,0.5c0.5,0.8,0.2,1.8-0.5,2.2c0,0,0,0-0.1,0L35.2,52z
	 M42.3,57.9c-0.4,0.8-1.4,1.1-2.2,0.7c-0.8-0.4-1.1-1.4-0.7-2.2c0,0,0,0,0-0.1l0.9-1.5c0.4-0.8,1.4-1.1,2.2-0.7
	c0.8,0.4,1.1,1.4,0.7,2.2c0,0,0,0,0,0.1C43.2,56.4,42.3,57.9,42.3,57.9z M48.2,23.9c-0.1-0.9,0.6-1.7,1.5-1.8
	c0.9-0.1,1.7,0.6,1.8,1.5c0,0.1,0,0.2,0,0.3v1.8c-0.1,0.9-0.9,1.6-1.8,1.5c-0.8-0.1-1.4-0.7-1.5-1.5V23.9z M51.3,59.5
	c0.1,0.9-0.6,1.7-1.5,1.8c-0.9,0.1-1.7-0.6-1.8-1.5c0-0.1,0-0.2,0-0.3v-1.8c0-0.9,0.7-1.7,1.6-1.7c0.9-0.1,1.7,0.6,1.8,1.5
	c0,0.1,0,0.2,0,0.3L51.3,59.5L51.3,59.5z M49.8,17c3.8,0,7.7,0.9,11.1,2.7c-0.7,0.7-1.4,1.4-2,2.1c-11-5-24-0.2-29.1,10.7
	s-0.2,24,10.8,29.1s24,0.2,29.1-10.8c2.9-6.2,2.7-13.4-0.6-19.4c0.6-0.8,1.3-1.6,1.9-2.3C78,40.8,74.2,56,62.4,63
	s-26.9,3.2-33.9-8.6s-3.1-27,8.7-33.9C40.9,18.2,45.3,17,49.8,17z M59.8,82.3c0.9,0,1.7,0.8,1.7,1.7c0,0.9-0.8,1.7-1.7,1.7H41.9
	c-1.7,0-3.2-0.7-4.3-1.9c-1.2-1.2-1.8-2.8-1.8-4.4v-9.3c1.1,0.5,2.3,1,3.3,1.5v7.8c0,0.8,0.3,1.6,0.9,2.2c0.5,0.6,1.2,0.9,2,0.9
	L59.8,82.3L59.8,82.3z M76.8,73c-6.3,0-11.4,5.1-11.4,11.3c0,6.3,5.1,11.4,11.3,11.4c6.3,0,11.3-5,11.4-11.3
	C88.2,78.2,83.2,73,76.8,73L76.8,73z M76.8,80c-2.5,0-4.3,2-4.3,4.3c0,2.5,2,4.3,4.3,4.3c2.5,0,4.3-2,4.3-4.3
	C81.2,82,79.2,80,76.8,80z M128.2,71.4c-6.3,0-11.4,5.1-11.4,11.4s5.1,11.4,11.4,11.4c6.3,0,11.4-5.1,11.4-11.4
	C139.5,76.5,134.4,71.4,128.2,71.4L128.2,71.4z M123.7,82.8c0,2.5,2,4.3,4.3,4.3c2.5,0,4.3-2,4.3-4.3s-2-4.3-4.3-4.3
	C125.7,78.4,123.7,80.3,123.7,82.8L123.7,82.8L123.7,82.8z M116.4,46.2l-5.1-0.1V57h10.8C120.9,53.2,118.9,49.5,116.4,46.2
	L116.4,46.2z"/>
</svg>
