<?xml version="1.0" encoding="utf-8"?>
<!-- Generator: Adobe Illustrator 25.2.1, SVG Export Plug-In . SVG Version: 6.00 Build 0)  -->
<svg version="1.1" id="Layer_1" xmlns="http://www.w3.org/2000/svg" xmlns:xlink="http://www.w3.org/1999/xlink" x="0px" y="0px"
	 viewBox="0 0 140 90" style="enable-background:new 0 0 140 90;" xml:space="preserve">
<style type="text/css">
	.st0{fill-rule:evenodd;clip-rule:evenodd;fill:#00ADEF;}
	.st1{fill:#00ADEF;}
</style>
<g>
	<path class="st0" d="M89.9,40.7c2.6,0,4.8,1.2,6.2,3.1c1.4-1.9,3.7-3.1,6.2-3.1c4.3,0,7.8,3.5,7.8,7.8s-3.5,7.8-7.8,7.8
		c-2.6,0-4.8-1.2-6.2-3.1c-1.4,1.9-3.7,3.1-6.2,3.1c-4.3,0-7.8-3.5-7.8-7.8S85.7,40.7,89.9,40.7L89.9,40.7L89.9,40.7z M52.3,34.3
		c8.6,5.5,16.4,8,23.1,7.4c0.4,8.7-0.5,16-2.5,22.1h40.3c0.6,0,1.2-0.3,1.6-0.7s0.7-1,0.7-1.6V32l0,0h-91v29.6
		c0,0.6,0.3,1.2,0.7,1.6c0.4,0.4,1,0.7,1.6,0.7h5.5c-2-6.1-3-13.6-2.8-22.5C37.2,41.8,44.9,40.1,52.3,34.3L52.3,34.3L52.3,34.3z
		 M71.8,66.9C67.9,75.8,61.2,81.7,52.4,85c-8.6-3.2-15.2-9-19.1-18.1h-6.6c-1.5,0-2.8-0.6-3.8-1.6s-1.6-2.3-1.6-3.8V10.4
		c0-1.5,0.6-2.8,1.6-3.8S25.2,5,26.7,5l0,0h86.5c1.5,0,2.8,0.6,3.8,1.6s1.6,2.3,1.6,3.8v51.2c0,1.5-0.6,2.8-1.6,3.8
		s-2.3,1.6-3.8,1.6L71.8,66.9L71.8,66.9z M52.3,39c7.2,4.5,13.6,6.7,19.2,6.2c0.4,7.6-0.5,14-2.4,19.2l-0.1,0.1
		c-0.1,0.2-0.1,0.3-0.2,0.5l-0.1,0.2c-0.1,0.1-0.1,0.3-0.2,0.4v0.1c-0.1,0.1-0.1,0.3-0.2,0.4l-0.1,0.2c-0.1,0.1-0.1,0.2-0.2,0.4
		l-0.1,0.2c-3.3,6.7-8.6,11.2-15.6,13.8c-6.9-2.5-12.2-6.9-15.5-13.8l0,0v-0.1l0,0c-0.1-0.1-0.1-0.2-0.2-0.4l0,0l0,0l0,0l0,0l0,0
		c-0.1-0.1-0.1-0.3-0.2-0.4l0,0l0,0l0,0c-0.1-0.2-0.2-0.4-0.2-0.6l0,0l0,0c-0.1-0.2-0.1-0.3-0.2-0.4l0,0l0,0l0,0l0,0
		c-0.1-0.2-0.1-0.3-0.2-0.5l0,0c-1.8-5.1-2.7-11.4-2.5-19C39.8,45.2,46.2,43.8,52.3,39L52.3,39L52.3,39z M24.4,16.6h91v-6.2
		c0-0.6-0.3-1.2-0.7-1.6c-0.4-0.4-1-0.7-1.6-0.7H26.7c-0.6,0-1.2,0.3-1.6,0.7c-0.4,0.4-0.7,1-0.7,1.6V16.6L24.4,16.6L24.4,16.6z"/>
	<path class="st1" d="M40.8,58.3l4.1-0.1l0.3,0.1c0.8,0.5,1.6,1,2.3,1.6c0.5,0.4,1,0.9,1.5,1.5c1.5-2.4,3-4.5,4.7-6.5
		c1.8-2.2,3.7-4.2,5.8-6l0.4-0.2h4.5l-0.9,1c-2.8,3.1-5.3,6.2-7.5,9.5s-4.3,6.7-6.1,10.1l-0.6,1.1l-0.6-0.9c-0.9-2-2.1-3.9-3.4-5.6
		c-1.4-1.7-2.9-3.2-4.8-4.4L40.8,58.3L40.8,58.3L40.8,58.3z"/>
</g>
</svg>
