<?xml version="1.0" encoding="utf-8"?>
<!-- Generator: Adobe Illustrator 25.2.1, SVG Export Plug-In . SVG Version: 6.00 Build 0)  -->
<svg version="1.1" id="Layer_1" xmlns="http://www.w3.org/2000/svg" xmlns:xlink="http://www.w3.org/1999/xlink" x="0px" y="0px"
	 viewBox="0 0 114 122.9" style="enable-background:new 0 0 114 122.9;" xml:space="preserve">
<style type="text/css">
	.st0{fill:#00AEEF;}
</style>
<path class="st0" d="M94,97.5c-0.4-4.4-1.8-8.1-3.6-11.4c-1.1-2.1-2.6-3.4-5.3-5.2c-3.6-2.3-8.2-4.1-13-6c-0.5-0.4-1-0.9-1.6-1.4
	c-1.7-1.5-3.7-3.2-4.3-3.9c1.1-1,2.1-2.1,3-3.2l1.6-1.9l0.3-0.4c0.1-0.1,0.2-0.2,0.2-0.3H75c2.2-4.6,2.8-10.2,2.1-15.7
	c0.3,0.3,0.7,0.6,1.2,0.6c0.8,0,1.5-0.7,1.5-1.5v-5.7c0-2.7-0.7-5.4-1.9-7.9c-1.2-2.6-3-4.9-5.1-6.6c-4.3-3.7-9.9-5.5-15.6-5.6
	c-5.7-0.1-11.4,1.7-15.8,5.2c-2.2,1.7-4.1,4-5.5,6.5c-1.3,2.3-2.1,4.9-2.1,7.5v6.9c0,0.2,0,0.3,0.1,0.5c-1.1,0.4-1.7,1.1-2,2.9
	C31.4,54.2,34,61.1,37.1,62c0.2,0.1,0.5,0.1,0.8,0.2c0.3,0.7,0.7,1.2,1.1,1.8l3.2-0.1c1.8,1.5,3.6,2.9,5.6,3.9
	c0.3,0.3,0.6,0.6,0.9,0.9c-0.3,0.6-2.7,2.6-4.7,4.4c-0.7,0.6-1.5,1.2-2,1.8c-4.8,1.9-9.4,3.8-13.1,6c-2.8,1.7-4.2,3.1-5.3,5.2
	c-3,5.6-2.3,4.8-3.5,10.5c-0.4,5,0,4.8,3.5,4.7c19.4-0.3,47.1,0.4,67,0C94.3,101.2,94.3,101.4,94,97.5z M36.8,46.6v-5.9
	c0-2.1,0.6-4.2,1.7-6.1c1.2-2.2,2.9-4.1,4.8-5.6c3.9-3.1,8.9-4.6,14-4.6c5,0.1,9.9,1.7,13.7,4.9c1.8,1.5,3.3,3.5,4.3,5.7
	c1,2.1,1.6,4.4,1.6,6.6v4.7c-1.3-6.8-4.9-13.1-10.5-16.8c-3.2-2.1-5.6-2-9.4-2c-4.3,0-6.6,0.1-10.3,2.6
	C41.6,33.3,38.4,38.9,36.8,46.6z M46.4,64l-1.1-1.3c-0.1-0.1-0.2-0.1-0.3-0.2c-2.9-10.1-1.6-19.3,6.4-27.2c1.4,4.5,4.5,8.3,9.9,11
	c2.6,1.9,5,4.2,7.4,6.8c0.4-1.7-1.2-3.9-3.2-6.1c1.8,0.9,3.5,2.2,4.7,4.6c1.4,2.8,1.4,5.2,0.9,8.2c-0.1,0.9-0.3,1.8-0.6,2.7
	c-0.1,0-0.2,0.1-0.2,0.2c-0.2,0.3-0.4,0.5-0.6,0.8c-0.1,0.1-0.1,0.2-0.3,0.4l-1.6,1.9c-0.9,1.1-1.8,2.2-2.8,3.1
	c-0.2,0.1-0.3,0.2-0.4,0.3c-0.3,0.2-0.5,0.4-0.8,0.6c-1.5,1-3.4,1.7-5.9,1.7c-2.4,0-4.1-0.7-5.6-1.6c-0.4-0.3-0.8-0.6-1.2-0.9
	c2.5,0.7,6.8,1.5,8-0.1c0.7-0.9,0.7-2.7-0.3-3.4c-1.1-0.9-4.6-1-5.9-0.1c-0.4,0.3-0.7,0.7-0.9,1.2C49.9,65.9,48.1,65.1,46.4,64z
	 M70.7,84.6l-13.8,12l-13.8-12l-6,0.1c1.5-2.9,3.2-5.5,5.1-8c0.6-0.5,1.6-1.4,2.8-2.4c1.9-1.6,4-3.4,4.9-4.5
	c0.4,0.3,0.8,0.6,1.2,0.9c1.8,1.2,3.9,2,6.7,2c3,0,5.3-0.8,7.1-2l0.1-0.1c0.9,1.1,2.8,2.7,4.5,4.2c0.8,0.7,1.5,1.3,2.1,1.8
	c2,2.5,3.8,5.2,5.3,8.2L70.7,84.6z"/>
<path class="st0" d="M61.9,87.7c0.7-1,1-2,0.7-3c-0.7-2.8-3.5-2.4-5.8-2.4c-2.2,0-4.5-0.4-5.6,1.8c-0.5,1-0.3,2.2,0.6,3.6l2.1,2.3
	l-4.2,14.6l7.2,5.7l7.1-5.7l-4.2-14.6L61.9,87.7z"/>
</svg>
