<?xml version="1.0" encoding="utf-8"?>
<!-- Generator: Adobe Illustrator 25.3.1, SVG Export Plug-In . SVG Version: 6.00 Build 0)  -->
<svg version="1.1" id="Layer_1" xmlns="http://www.w3.org/2000/svg" xmlns:xlink="http://www.w3.org/1999/xlink" x="0px" y="0px"
	 viewBox="0 0 240 60" style="enable-background:new 0 0 240 60;" xml:space="preserve">
<style type="text/css">
	.st0{fill:#231F20;}
	.st1{fill:#FFFFFF;}
</style>
<g>
	<g>
		<path class="st0" d="M29.99,58.96c-0.25,0-0.48-0.07-0.68-0.2c-0.72-0.77-0.47-2.18,0.75-4.8c1.07-2.29,2.49-4.91,4.19-7.79
			c1.7-2.87,3.32-5.51,4.82-7.86c1.24-1.95,2.12-3.3,2.64-4.08c-0.73,0.25-1.81,0.61-3.27,1.09c-1.75,0.57-3.8,1.2-6.13,1.88
			c-2.33,0.68-4.76,1.33-7.21,1.92c-2.47,0.6-4.8,1.04-6.91,1.33c-1.21,0.16-2.31,0.25-3.27,0.25c-0.75,0-1.44-0.05-2.04-0.15
			c-2.01-0.33-2.44-1.45-2.44-2.33c0-1.68,0.73-3.66,2.18-5.88c1.4-2.16,3.14-4.36,5.16-6.56c2.01-2.19,4.02-4.22,5.96-6.03
			c1.94-1.81,3.54-3.24,4.75-4.25c1.11-0.99,2.94-2.45,5.41-4.35c2.48-1.91,5.23-3.81,8.19-5.65c2.98-1.86,5.81-3.2,8.4-3.98
			c1.01-0.3,1.94-0.46,2.77-0.46c1.44,0,2.63,0.45,3.53,1.34c1.11,1.4,1.4,3.36,0.91,5.88c-0.47,2.4-1.33,5.03-2.58,7.81
			c-1.23,2.76-2.52,5.36-3.83,7.72c-1.31,2.37-2.34,4.15-3.07,5.32c-0.01,0.02-0.02,0.04-0.04,0.07c7.08-2.27,14.32-4.43,21.51-6.43
			c0.57-0.15,0.99-0.28,1.25-0.39c0.21-0.09,0.37-0.2,0.49-0.32c0.15-0.17,0.32-0.42,0.52-0.76c0.11-0.19,0.27-0.46,0.47-0.78
			l4.95-7.71c1.21-1.87,2.42-3.75,3.63-5.64l0.18-0.25l0.06-0.1l-0.03-0.08l-0.05-0.25c-0.04-0.57,0.18-1.04,0.66-1.47
			c0.41-0.37,0.87-0.63,1.37-0.79c0.23-0.07,0.45-0.11,0.66-0.11c0.31,0,0.59,0.08,0.83,0.24c0.32,0.33,0.55,0.76,0.38,1.41
			c-0.1,0.4-0.27,0.79-0.51,1.17c-0.23,0.37-0.41,0.64-0.56,0.81c-0.51,0.8-1.07,1.66-1.64,2.52c-2.45,3.72-4.89,7.44-7.32,11.16
			c0.76-0.21,1.69-0.41,2.74-0.58c0.52-0.09,1-0.13,1.45-0.13c0.73,0,1.39,0.11,1.96,0.34c0.27,0.12,0.52,0.29,0.74,0.51
			c0.29,0.29,0.42,0.66,0.38,1.08c-0.13,0.6-0.45,0.76-0.64,0.81l-0.07,0.02l-0.21,0.02c-0.15,0-0.3-0.03-0.45-0.09
			c-0.16-0.07-0.32-0.15-0.48-0.26c-0.05-0.03-0.25-0.1-0.71-0.1c-0.15,0-0.32,0.01-0.5,0.02c-0.7,0.06-1.44,0.18-2.19,0.35
			c-0.77,0.17-1.4,0.33-1.89,0.48c-0.21,0.04-0.31,0.06-0.39,0.07l-0.57,0.16c-0.37,0.09-0.63,0.16-0.81,0.23
			c-0.11,0.05-0.23,0.13-0.33,0.26c-0.15,0.18-0.35,0.47-0.6,0.87c-4.35,6.55-8.29,13.46-11.74,20.52c-0.06,0.14-0.19,0.41-0.2,0.43
			c0.03,0.08,0.06,0.16,0.09,0.26c0.09,0.63-0.07,1.08-0.45,1.41c-0.31,0.26-0.65,0.4-1.03,0.4c-0.47-0.04-1-0.21-1.24-0.95
			c-0.28-1.03-0.18-1.99,0.31-2.88c3.38-6.51,7.11-12.96,11.07-19.17c-5.56,1.65-11.04,3.36-16.31,5.11l-4.82,1.57
			c-0.44,0.14-0.69,0.21-0.9,0.26c-0.43,0.14-0.79,0.26-1.02,0.36c-0.17,0.08-0.3,0.18-0.4,0.3c-0.14,0.17-0.33,0.45-0.55,0.84
			c-0.14,0.23-0.31,0.5-0.51,0.81l-2.7,4.34c-1.36,2.2-2.84,4.62-4.45,7.28c-1.6,2.66-2.98,5-4.15,7.05
			c-1.26,2.22-1.63,3.03-1.74,3.32c0.25,0.63,0.03,1.1-0.13,1.32c-0.26,0.36-0.62,0.62-1.05,0.77
			C30.36,58.92,30.17,58.96,29.99,58.96z M52.83,3.97c-0.35,0-0.74,0.05-1.18,0.15c-2.35,0.52-5.34,1.97-8.89,4.3
			c-3.59,2.35-7.35,5.19-11.19,8.43c-3.83,3.24-7.36,6.52-10.48,9.74c-3.11,3.21-5.4,5.96-6.81,8.19c-1.16,1.83-1.15,2.58-1.05,2.86
			c0.04,0.11,0.12,0.24,0.41,0.33c0.33,0.05,0.78,0.08,1.29,0.08c1.65,0,3.93-0.34,6.77-1c3.78-0.88,7.66-1.93,11.52-3.11
			c3.85-1.18,6.78-2.11,8.7-2.77c0.39-0.11,0.7-0.21,0.96-0.3c0.47-0.15,0.8-0.27,1.01-0.36c0.14-0.06,0.25-0.15,0.34-0.27
			c0.13-0.18,0.31-0.45,0.54-0.83c0.15-0.25,0.34-0.6,0.58-1.03c2.05-3.32,3.98-6.77,5.73-10.27c2.82-5.81,4.13-9.83,3.9-11.94
			C54.83,4.66,54.16,3.97,52.83,3.97z"/>
		<path class="st0" d="M94.01,58.95c-0.32,0-0.63-0.01-0.94-0.02c-1.33-0.06-2.21-0.41-2.69-1.05c-0.58-1.15-0.05-1.69,0.2-1.88
			c0.22-0.16,0.47-0.24,0.75-0.24c0.34,0,0.69,0.12,1.08,0.38c0.31,0.08,0.87,0.15,1.55,0.15c0.65,0,1.42-0.07,2.29-0.2
			c1.83-0.28,3.44-0.58,4.79-0.88c0.18-0.05,0.37-0.08,0.54-0.11c8.62-1.84,17.18-5.21,25.41-10.01c8.23-4.8,15.3-10.53,20.99-17.05
			c4.91-5.84,7.64-10.59,8.1-14.1c0.45-3.43-0.6-5.85-3.19-7.41c-2.68-1.6-6.33-2.44-10.86-2.5l-0.62,0c-4.4,0-9.13,0.57-14.06,1.69
			c-5.16,1.17-10,2.81-14.38,4.88c-0.89,0.41-2.24,1.18-4.02,2.29c-1.78,1.11-3.47,2.4-5.04,3.82c-1.5,1.37-2.38,2.7-2.62,3.96
			c-0.08,0.41-0.31,1.66,2.59,2.88c0.53,0.26,0.72,0.61,0.78,0.86c0.11,0.41,0,0.78-0.3,1.05c-0.13,0.12-0.36,0.26-0.71,0.26
			c-0.17,0-0.35-0.03-0.56-0.1c-3.18-1.14-4.79-2.65-4.8-4.49c-0.01-1.74,0.86-3.54,2.6-5.36c1.67-1.75,3.59-3.34,5.71-4.74
			c2.11-1.39,3.86-2.41,5.19-3.04c5.04-2.36,10.45-4.14,16.06-5.31c4.51-0.94,8.84-1.41,12.86-1.41c0.99,0,1.97,0.03,2.94,0.08
			c4.93,0.29,8.87,1.48,11.74,3.54c2.95,2.13,4.15,5.32,3.56,9.49c-0.57,4.06-3.53,9.28-8.81,15.53
			c-6.21,7.14-13.94,13.33-22.98,18.4c-9.03,5.07-18.35,8.46-27.68,10.07c-0.59,0.11-1.51,0.24-2.74,0.4
			C95.81,58.89,94.89,58.95,94.01,58.95z"/>
		<path class="st0" d="M105.43,51.41c-0.35,0-0.67-0.17-0.89-0.49c-0.25-0.36-0.3-0.81-0.14-1.34c1.16-3.16,1.06-4.86,8.72-19.29
			c2.7-5.09,5.89-9.15,8.34-12.73c0.48-0.68,0.89-1.29,1.24-1.83c0.4-0.59,0.46-0.82,0.46-0.87c-0.01-0.11-0.09-0.16-0.2-0.2
			c-0.1,0-0.3-0.09-0.45-0.22c-0.24-0.21-0.32-0.53-0.2-0.86c0.07-0.19,0.21-0.41,0.45-0.7c0.33-0.37,0.87-0.93,1.66-1.69
			c0.78-0.76,1.59-1.44,2.4-2.03c0.69-0.5,1.25-0.74,1.73-0.74c0.21,0,0.4,0.05,0.57,0.14c0.31,0.22,0.69,0.64,0.48,1.43
			c-0.11,0.42-0.32,0.87-0.61,1.33c-0.27,0.42-0.51,0.8-0.73,1.13c-0.15,0.22-0.26,0.38-0.36,0.5c-1.2,1.89-2.27,3.15-5.54,7.46
			c-2.4,3.17-5.7,8.2-8.02,12.7c-5.72,11.06-6.87,14.76-7.75,17.21c-0.15,0.58-0.46,0.94-0.91,1.05l-0.06,0.01L105.43,51.41z"/>
		<path class="st0" d="M181.74,43.82c-0.15,0-0.28-0.02-0.41-0.07c-0.61-0.32-1.38-1.06-0.53-2.81c1.33-2.7,2.88-5.26,4.6-7.6
			c0.81-1.16,1.61-2.34,2.37-3.53c-0.17-0.25-0.22-0.53-0.15-0.8c0.07-0.26,0.21-0.52,0.45-0.78c0.15-0.15,0.38-0.33,0.71-0.55
			c0.35-0.23,0.71-0.39,1.07-0.48c0.12-0.03,0.24-0.05,0.35-0.05c0.38,0,0.7,0.18,0.89,0.5c0.23,0.37,0.19,0.92-0.12,1.82
			c-1.41,2.54-2.98,5.04-4.72,7.52c-0.03,0.05-0.07,0.1-0.1,0.16c1.2-1.04,2.44-2.09,3.74-3.16c1.63-1.34,3.13-2.45,4.49-3.3
			c1.21-0.76,2.16-1.13,2.91-1.13c0.18,0,0.35,0.02,0.51,0.06c0.9,0.41,1.69,1.37,0.86,3.84l-0.24,0.61
			c-0.19,0.57-0.45,1.33-0.77,2.23c-0.31,0.89-0.56,1.69-0.75,2.41c-0.01,0.04-0.02,0.08-0.03,0.12c0.02-0.02,0.05-0.05,0.08-0.07
			c0.47-0.45,1.01-1,1.64-1.68c1.05-1.14,2.17-2.24,3.31-3.26c1.24-1.11,2.28-1.66,3.19-1.68c1.05,0.15,1.65,0.75,1.78,1.69
			c0.1,0.75,0.11,1.59,0.02,2.48c-0.06,0.53-0.09,1-0.08,1.43c0.01,0.3,0.07,0.52,0.16,0.61c0.29-0.04,1.17-0.26,3.64-1.73
			c0.32-0.18,0.59-0.27,0.85-0.27h0.09l0.25,0.06c0.43,0.15,0.65,0.53,0.57,0.98c-0.08,0.48-0.53,0.8-0.86,0.99
			c-1.67,1.04-2.94,1.69-3.87,1.98c-0.39,0.12-0.75,0.18-1.09,0.18c-0.58,0-1.08-0.18-1.47-0.54c-0.92-0.89-1.27-2.32-1.09-4.37
			c-0.01,0.01-0.08,0.07-0.08,0.07l-0.19,0.13c-0.55,0.48-1.29,1.15-2.11,1.95c-1.04,1.02-2.06,1.92-3.02,2.69
			c-0.88,0.7-1.62,1.04-2.27,1.04c-0.17,0-0.34-0.02-0.5-0.07c-1.01-0.43-1.53-1.24-1.56-2.37c-0.02-0.98,0.16-2.05,0.54-3.2
			c0.37-1.11,0.75-2.11,1.12-2.96l0.2-0.5c-0.63,0.41-1.44,1.02-2.41,1.83c-1.09,0.91-2.18,1.85-3.26,2.82l-2.62,2.36
			c-0.34,0.3-0.55,0.5-0.63,0.59l-0.58,0.48c-0.39,0.37-0.93,0.85-1.57,1.39c-0.65,0.55-1.29,1.02-1.9,1.41
			C182.59,43.65,182.13,43.82,181.74,43.82z"/>
		<path class="st0" d="M209.94,41.84c-0.8,0-1.16-0.34-1.32-0.63c-0.47-0.94-0.02-2.2,1.37-3.88c1.25-1.51,2.89-2.97,4.87-4.33
			c2-1.38,3.95-2.22,5.81-2.51c0.28-0.04,0.54-0.06,0.79-0.06c1.61,0,2.83,0.87,3.53,2.5c0.14,0.44,0.07,0.8-0.16,1.12
			c-0.2,0.26-0.47,0.45-0.8,0.55c-0.12,0.03-0.24,0.05-0.36,0.05c-0.26,0-0.52-0.08-0.79-0.23c0,0,0,0,0,0
			c-0.02,0.16-0.06,0.32-0.14,0.47c-0.77,1.67-0.75,2.47-0.47,2.65c0.26,0.17,0.61,0.26,1.02,0.26l0,0c0.39,0,0.84-0.07,1.35-0.22
			c1.17-0.34,2.19-0.75,3.03-1.24c0.43-0.22,0.74-0.32,1.01-0.32c0.36,0,0.66,0.19,0.79,0.51c0.22,0.52-0.06,1.06-0.81,1.59
			c-0.89,0.54-2,1.05-3.34,1.53c-0.99,0.36-1.93,0.54-2.78,0.54c-0.35,0-0.68-0.03-1.01-0.09c-0.87-0.16-1.92-0.78-2.04-2.81
			c-3.38,2.2-5.82,3.54-7.43,4.09C211.17,41.69,210.47,41.84,209.94,41.84z M221.35,32.74c-0.35,0-0.78,0.1-1.27,0.29
			c-1.29,0.51-2.68,1.32-4.13,2.4c-1.47,1.1-2.73,2.16-3.74,3.14c-0.17,0.16-0.32,0.31-0.44,0.44c0.27-0.14,0.58-0.31,0.97-0.54
			c1.62-0.93,4.34-2.71,8.07-5.28c0.27-0.15,0.51-0.22,0.77-0.22l0.23,0.02c0.11,0.02,0.21,0.05,0.3,0.09l0.02-0.05l0.09,0.01
			C222.03,32.86,221.74,32.74,221.35,32.74z"/>
		<circle class="st0" cx="76.83" cy="54.19" r="2.78"/>
		<path class="st0" d="M184.55,36.61c-0.31,0-0.65,0.16-1.02,0.48c-0.97,0.71-2.14,1.45-3.47,2.21c-1.32,0.75-2.54,1.28-3.63,1.58
			c-0.34,0.1-0.63,0.14-0.86,0.14c-0.48,0-0.56-0.2-0.57-0.2c-0.19-0.82-0.02-1.81,0.52-2.93c0.58-1.21,1.19-2.24,1.82-3.06
			c1.4-1.84,1.7-3.38,0.91-4.6c-0.71-1.09-2-2.06-3.81-2.86c-0.09-0.04-0.14-0.07-0.17-0.08c0.01-0.05,0.05-0.13,0.11-0.26
			c0.34-0.85,0.46-1.64,0.34-2.33c-0.12-0.69-0.39-1.28-0.87-1.82c-0.68-0.52-1.33-0.79-1.93-0.79c-0.4,0-0.77,0.11-1.11,0.33
			c-0.85,0.55-1.25,1.46-1.19,2.75c0.1,0.8,0.49,1.62,1.19,2.47c0.18,0.2,0.3,0.39,0.38,0.58c0.04,0.1-0.06,0.25-0.09,0.3
			c-0.29,0.33-0.58,0.67-0.82,0.98l0,0c0,0-2.02,2.31-4.09,4.4c-0.02,0.02-0.05,0.04-0.07,0.06c-0.02,0.02-0.04,0.05-0.07,0.07
			c-0.33,0.33-0.66,0.65-0.98,0.96c-0.33,0.3-0.75,0.68-1.29,1.15c-1.27,1.11-2.7,2.26-4.26,3.4c-1.53,1.12-2.91,1.92-4.1,2.37
			c-0.12,0.05-0.24,0.09-0.36,0.12c-0.91,0.24-1.01-0.13-1.07-0.33c-0.08-0.54,0.02-1.24,0.28-2.09c0.2-0.66,0.4-1.24,0.59-1.73
			c0.33,0.06,0.69,0.03,1.07-0.07c0.52-0.14,1.07-0.42,1.67-0.86c1.16-0.85,2.22-1.95,3.15-3.26c0.98-1.38,1.47-2.58,1.51-3.67
			c0.02-0.69-0.26-1.12-0.5-1.35c-0.47-0.46-1.29-0.84-2.49-0.56c-1.48,0.4-2.93,1.5-4.3,3.28c-1.35,1.75-2.45,3.68-3.27,5.73
			c-0.85,2.13-1.16,3.83-0.93,5.24c0.64,2.67,2.23,3.08,3.46,2.95c0.38-0.04,0.77-0.11,1.17-0.22c1.21-0.33,2.53-0.98,3.93-1.93
			c1.8-1.23,3.48-2.58,5-4.01c1.14-1.08,2.04-1.97,2.67-2.65c0,0,0.01-0.01,0.01-0.01c0.01-0.01,0.02-0.02,0.03-0.04
			c0.19-0.2,0.36-0.39,0.49-0.56c0.03-0.03,0.05-0.06,0.07-0.1c1.5-1.71,3.48-3.91,4.26-4.78c0.11-0.11,0.23-0.23,0.34-0.38
			c0.14-0.16,0.34-0.43,0.62-0.81c0.2-0.28,0.31-0.37,0.32-0.38c0.02,0,0.06,0.01,0.1,0.03l0.15,0.12l0.07,0.04
			c1.01,0.56,1.77,1.14,2.25,1.73c0.13,0.16,0.53,0.66-0.34,1.87c-2.79,3.72-3.9,6.35-3.38,8.05c0.29,0.94,1.05,2.06,3.08,2.06
			c0.51,0,1.1-0.07,1.73-0.22c2.41-0.54,5.13-2.15,8.14-4.79c0.31-0.31,0.45-0.63,0.43-0.97C185.35,36.94,185.05,36.64,184.55,36.61
			z M157.14,32.22c0.79-1.03,1.75-1.61,2.14-1.31c0.4,0.3,0.08,1.38-0.7,2.41c-0.79,1.03-1.75,1.61-2.14,1.31
			C156.04,34.32,156.36,33.24,157.14,32.22z"/>
	</g>
</g>
</svg>
